<svg xmlns="http://www.w3.org/2000/svg" width="640" height="320" viewBox="0 0 640 320">
  <rect width="640" height="320" rx="36" fill="#111827"/>
  <rect x="48" y="70" width="544" height="180" rx="24" fill="#1f2937" stroke="#374151" stroke-width="6"/>
  <g fill="#22d3ee" opacity="0.6">
    <rect x="86" y="112" width="80" height="40" rx="10"/>
    <rect x="178" y="112" width="80" height="40" rx="10"/>
    <rect x="270" y="112" width="80" height="40" rx="10"/>
    <rect x="362" y="112" width="80" height="40" rx="10"/>
    <rect x="454" y="112" width="80" height="40" rx="10"/>
    <rect x="132" y="164" width="80" height="40" rx="10"/>
    <rect x="224" y="164" width="80" height="40" rx="10"/>
    <rect x="316" y="164" width="80" height="40" rx="10"/>
    <rect x="408" y="164" width="80" height="40" rx="10"/>
  </g>
  <rect x="240" y="220" width="160" height="36" rx="18" fill="#38bdf8" opacity="0.5"/>
</svg>
