<svg xmlns="http://www.w3.org/2000/svg" viewBox="0 0 320 200" role="img" aria-labelledby="title desc">
  <title id="title">Orion Mechanical Keyboard illustration</title>
  <desc id="desc">Compact mechanical keyboard with RGB lighting.</desc>
  <defs>
    <linearGradient id="board" x1="0" y1="0" x2="1" y2="1">
      <stop offset="0%" stop-color="#1a1c26" />
      <stop offset="100%" stop-color="#2c3142" />
    </linearGradient>
  </defs>
  <rect x="28" y="60" width="264" height="88" rx="18" fill="url(#board)" />
  <g fill="#282c3d">
    <rect x="46" y="76" width="36" height="16" rx="4" />
    <rect x="86" y="76" width="36" height="16" rx="4" />
    <rect x="126" y="76" width="36" height="16" rx="4" />
    <rect x="166" y="76" width="36" height="16" rx="4" />
    <rect x="206" y="76" width="36" height="16" rx="4" />
    <rect x="246" y="76" width="36" height="16" rx="4" />
    <rect x="46" y="100" width="54" height="16" rx="4" />
    <rect x="104" y="100" width="54" height="16" rx="4" />
    <rect x="162" y="100" width="54" height="16" rx="4" />
    <rect x="220" y="100" width="62" height="16" rx="4" />
  </g>
  <rect x="40" y="68" width="240" height="12" rx="6" fill="#6b68ff" opacity="0.65" />
  <ellipse cx="160" cy="156" rx="120" ry="10" fill="rgba(0,0,0,0.2)" />
</svg>
